<svg width="16" height="16" viewBox="0 0 16 16" fill="none" xmlns="http://www.w3.org/2000/svg">
<path d="M1.90601 1.91867L10.286 0.721334C10.3333 0.71455 10.3815 0.718012 10.4273 0.731484C10.4732 0.744957 10.5156 0.768127 10.5517 0.799423C10.5878 0.830718 10.6167 0.869409 10.6366 0.912873C10.6564 0.956336 10.6667 1.00356 10.6667 1.05133V14.9493C10.6667 14.997 10.6564 15.0442 10.6366 15.0876C10.6168 15.131 10.5879 15.1697 10.5519 15.201C10.5159 15.2322 10.4736 15.2554 10.4278 15.269C10.382 15.2825 10.3339 15.286 10.2867 15.2793L1.90534 14.082C1.74642 14.0594 1.601 13.9802 1.4958 13.8589C1.3906 13.7377 1.33267 13.5825 1.33267 13.422V2.57867C1.33267 2.41814 1.3906 2.26301 1.4958 2.14176C1.601 2.02052 1.74708 1.9413 1.90601 1.91867ZM11.3333 2H14C14.1768 2 14.3464 2.07024 14.4714 2.19526C14.5964 2.32029 14.6667 2.48986 14.6667 2.66667V13.3333C14.6667 13.5101 14.5964 13.6797 14.4714 13.8047C14.3464 13.9298 14.1768 14 14 14H11.3333V2ZM6.80001 8L8.66667 5.33333H7.06667L6.00001 6.85734L4.93334 5.33333H3.33334L5.20001 8L3.33334 10.6667H4.93334L6.00001 9.14267L7.06667 10.6667H8.66667L6.80001 8Z" fill="#FFFFFE"/>
</svg>
