<svg width="24" height="24" viewBox="0 0 24 24" fill="none" xmlns="http://www.w3.org/2000/svg">
<g clip-path="url(#clip0_12_150)">
<path d="M20.6666 5.33334H15.3333V6.66668H20.6666V20.6667H15.3333V22H22V6.66668C22 6.31305 21.8595 5.97392 21.6095 5.72387C21.3594 5.47382 21.0203 5.33334 20.6666 5.33334Z" fill="white"/>
<path d="M13.2534 2H4.08002C3.70518 2 3.34569 2.1489 3.08064 2.41396C2.81559 2.67901 2.66669 3.03849 2.66669 3.41333V22H14.6667V3.41333C14.6667 3.03849 14.5178 2.67901 14.2527 2.41396C13.9877 2.1489 13.6282 2 13.2534 2ZM13.3334 20.6667H11.3334V18.6667H6.00002V20.6667H4.00002V3.41333C4.00002 3.40283 4.00209 3.39242 4.00611 3.38272C4.01013 3.37301 4.01602 3.36419 4.02345 3.35676C4.03088 3.34934 4.0397 3.34344 4.04941 3.33942C4.05911 3.3354 4.06951 3.33333 4.08002 3.33333H13.2534C13.2639 3.33333 13.2743 3.3354 13.284 3.33942C13.2937 3.34344 13.3025 3.34934 13.3099 3.35676C13.3174 3.36419 13.3232 3.37301 13.3273 3.38272C13.3313 3.39242 13.3334 3.40283 13.3334 3.41333V20.6667Z" fill="white"/>
<path d="M5.33331 5.33334H6.66665V6.66668H5.33331V5.33334Z" fill="white"/>
<path d="M8 5.33334H9.33333V6.66668H8V5.33334Z" fill="white"/>
<path d="M10.6667 5.33334H12V6.66668H10.6667V5.33334Z" fill="white"/>
<path d="M5.33331 8.66666H6.66665V9.99999H5.33331V8.66666Z" fill="white"/>
<path d="M8 8.66666H9.33333V9.99999H8V8.66666Z" fill="white"/>
<path d="M10.6667 8.66666H12V9.99999H10.6667V8.66666Z" fill="white"/>
<path d="M5.33331 12H6.66665V13.3333H5.33331V12Z" fill="white"/>
<path d="M8 12H9.33333V13.3333H8V12Z" fill="white"/>
<path d="M10.6667 12H12V13.3333H10.6667V12Z" fill="white"/>
<path d="M5.33331 15.3333H6.66665V16.6667H5.33331V15.3333Z" fill="white"/>
<path d="M8 15.3333H9.33333V16.6667H8V15.3333Z" fill="white"/>
<path d="M10.6667 15.3333H12V16.6667H10.6667V15.3333Z" fill="white"/>
<path d="M15.3333 8.66666H16.6666V9.99999H15.3333V8.66666Z" fill="white"/>
<path d="M18 8.66666H19.3333V9.99999H18V8.66666Z" fill="white"/>
<path d="M15.3333 12H16.6666V13.3333H15.3333V12Z" fill="white"/>
<path d="M18 12H19.3333V13.3333H18V12Z" fill="white"/>
<path d="M15.3333 15.3333H16.6666V16.6667H15.3333V15.3333Z" fill="white"/>
<path d="M18 15.3333H19.3333V16.6667H18V15.3333Z" fill="white"/>
</g>
<defs>
<clipPath id="clip0_12_150">
<rect width="24" height="24" fill="white"/>
</clipPath>
</defs>
</svg>
